<?xml version="1.0" encoding="UTF-8"?>
<svg xmlns="http://www.w3.org/2000/svg" xmlns:xlink="http://www.w3.org/1999/xlink" width="256px" height="256px" viewBox="0 0 256 256" version="1.1">
<g id="surface1">
<path style=" stroke:none;fill-rule:nonzero;fill:#fbf1c7;fill-opacity:1;" d="M 162.816406 168.816406 C 177.601562 168.828125 189.585938 180.8125 189.597656 195.597656 C 189.605469 210.394531 177.613281 222.398438 162.816406 222.410156 C 148.003906 222.417969 135.996094 210.40625 136.003906 195.597656 C 136.015625 180.796875 148.015625 168.808594 162.816406 168.816406 Z M 162.816406 168.816406 "/>
<path style=" stroke:none;fill-rule:nonzero;fill:#fbf1c7;fill-opacity:1;" d="M 73.4375 161.375 C 82.316406 178.859375 98.652344 191.363281 117.84375 195.375 C 119.96875 196.035156 122.179688 196.382812 124.40625 196.40625 C 124.582031 204.542969 127.390625 212.40625 132.40625 218.8125 C 126.03125 218.835938 119.667969 218.164062 113.4375 216.8125 C 85.023438 210.847656 61.460938 191.09375 50.625 164.15625 C 58.335938 165.566406 66.292969 164.59375 73.4375 161.375 Z M 73.4375 161.375 "/>
<path style=" stroke:none;fill-rule:nonzero;fill:#fbf1c7;fill-opacity:1;" d="M 57.4375 99.75 C 72.246094 99.742188 84.257812 111.753906 84.25 126.5625 C 84.257812 141.375 72.246094 153.382812 57.4375 153.375 C 42.625 153.382812 30.617188 141.375 30.625 126.5625 C 30.617188 111.753906 42.625 99.742188 57.4375 99.75 Z M 57.4375 99.75 "/>
<path style=" stroke:none;fill-rule:nonzero;fill:#fbf1c7;fill-opacity:1;" d="M 204.398438 83.1875 C 225.136719 114.800781 223.359375 156.125 199.992188 185.84375 C 198.03125 177.996094 193.527344 171.019531 187.179688 166 C 191.175781 159.605469 194.019531 152.5625 195.585938 145.1875 C 198.773438 130.125 196.574219 114.421875 189.367188 100.8125 C 196.058594 96.605469 201.300781 90.457031 204.398438 83.1875 Z M 204.398438 83.1875 "/>
<path style=" stroke:none;fill-rule:nonzero;fill:#fbf1c7;fill-opacity:1;" d="M 129.90625 43.84375 C 132.65625 43.796875 135.410156 43.882812 138.15625 44.09375 C 134.515625 48.640625 132 53.984375 130.8125 59.6875 C 130.421875 61.667969 130.152344 63.671875 130 65.6875 C 108.929688 65.980469 89.308594 76.476562 77.375 93.84375 C 73.628906 91.480469 69.507812 89.78125 65.1875 88.8125 C 62.558594 88.253906 59.875 87.980469 57.1875 88 L 55.1875 88 C 70.597656 61.167969 98.96875 44.402344 129.90625 43.84375 Z M 129.90625 43.84375 "/>
<path style=" stroke:none;fill-rule:nonzero;fill:#fbf1c7;fill-opacity:1;" d="M 168.816406 41.03125 C 183.613281 41.042969 195.605469 53.046875 195.597656 67.84375 C 195.585938 82.632812 183.601562 94.613281 168.816406 94.625 C 154.015625 94.632812 142.015625 82.644531 142.003906 67.84375 C 141.996094 53.035156 154.003906 41.023438 168.816406 41.03125 Z M 168.816406 41.03125 "/>
</g>
</svg>
